<svg height="512" viewBox="0 0 256 256" width="512" xmlns="http://www.w3.org/2000/svg"><path d="m65 146h27v66h-27z" fill="#419b46"/><path d="m20 146h27v66h-27z" fill="#a4d4a0"/><path d="m47 146h18v66h-18z" fill="#65bc49"/><path d="m35 191a6 6 0 0 0 12 0v-6h-12z" fill="#e8383b"/><path d="m35 173h12v12h-12z" fill="#e95947"/><path d="m41 161a6 6 0 0 0 -6 6v6h12v-6a6 6 0 0 0 -6-6z" fill="#ef7f72"/><path d="m65 191a6 6 0 0 0 12 0v-6h-12z" fill="#e8383b"/><path d="m65 173h12v12h-12z" fill="#e95947"/><path d="m71 161a6 6 0 0 0 -6 6v6h12v-6a6 6 0 0 0 -6-6z" fill="#ef7f72"/><path d="m120.877 146h7.123v66h-7.123z" fill="#d3ba2a"/><path d="m110 146h7.123v66h-7.123z" fill="#ede49d"/><path d="m117.123 146h3.754v66h-3.754z" fill="#eee045"/><path d="m138.877 146h7.123v66h-7.123z" fill="#d3ba2a"/><path d="m128 146h7.123v66h-7.123z" fill="#ede49d"/><path d="m135.123 146h3.754v66h-3.754z" fill="#eee045"/><path d="m156.877 146h7.123v66h-7.123z" fill="#d3ba2a"/><path d="m146 146h7.123v66h-7.123z" fill="#ede49d"/><path d="m153.123 146h3.754v66h-3.754z" fill="#eee045"/><path d="m174.877 146h7.123v66h-7.123z" fill="#d3ba2a"/><path d="m164 146h7.123v66h-7.123z" fill="#ede49d"/><path d="m171.123 146h3.754v66h-3.754z" fill="#eee045"/><path d="m192.877 146h7.123v66h-7.123z" fill="#d3ba2a"/><path d="m182 146h7.123v66h-7.123z" fill="#ede49d"/><path d="m189.123 146h3.754v66h-3.754z" fill="#eee045"/><path d="m210.877 146h7.123v66h-7.123z" fill="#d3ba2a"/><path d="m200 146h7.123v66h-7.123z" fill="#ede49d"/><path d="m207.123 146h3.754v66h-3.754z" fill="#eee045"/><path d="m228.877 146h7.123v66h-7.123z" fill="#d3ba2a"/><path d="m218 146h7.123v66h-7.123z" fill="#ede49d"/><path d="m225.123 146h3.754v66h-3.754z" fill="#eee045"/><path d="m236 215h-216a3 3 0 0 1 -3-3v-66a3 3 0 0 1 3-3h216a3 3 0 0 1 3 3v66a3 3 0 0 1 -3 3zm-213-6h210v-60h-210z" fill="#1c2d6b"/><path d="m97.773 44h-67.773a10 10 0 0 0 -10 10v92h72v-96.227a5.773 5.773 0 0 1 5.773-5.773z" fill="#89aadb"/><path d="m226 44h-67.773a5.773 5.773 0 0 1 5.773 5.773v96.227h72v-92a10 10 0 0 0 -10-10z" fill="#4b67b0"/><path d="m158.227 44h-60.454a5.773 5.773 0 0 0 -5.773 5.773v96.227h72v-96.227a5.773 5.773 0 0 0 -5.773-5.773z" fill="#6287c5"/><path d="m236 149h-216a3 3 0 0 1 -3-3v-92a13.015 13.015 0 0 1 13-13h196a13.015 13.015 0 0 1 13 13v92a3 3 0 0 1 -3 3zm-213-6h210v-89a7.009 7.009 0 0 0 -7-7h-196a7.009 7.009 0 0 0 -7 7z" fill="#1c2d6b"/><path d="m236 215h-18a3 3 0 0 1 -3-3v-66a3 3 0 0 1 3-3h18a3 3 0 0 1 3 3v66a3 3 0 0 1 -3 3zm-15-6h12v-60h-12z" fill="#1c2d6b"/><path d="m218 215h-18a3 3 0 0 1 -3-3v-66a3 3 0 0 1 3-3h18a3 3 0 0 1 3 3v66a3 3 0 0 1 -3 3zm-15-6h12v-60h-12z" fill="#1c2d6b"/><path d="m200 215h-18a3 3 0 0 1 -3-3v-66a3 3 0 0 1 3-3h18a3 3 0 0 1 3 3v66a3 3 0 0 1 -3 3zm-15-6h12v-60h-12z" fill="#1c2d6b"/><path d="m182 215h-18a3 3 0 0 1 -3-3v-66a3 3 0 0 1 3-3h18a3 3 0 0 1 3 3v66a3 3 0 0 1 -3 3zm-15-6h12v-60h-12z" fill="#1c2d6b"/><path d="m164 215h-18a3 3 0 0 1 -3-3v-66a3 3 0 0 1 3-3h18a3 3 0 0 1 3 3v66a3 3 0 0 1 -3 3zm-15-6h12v-60h-12z" fill="#1c2d6b"/><path d="m146 215h-18a3 3 0 0 1 -3-3v-66a3 3 0 0 1 3-3h18a3 3 0 0 1 3 3v66a3 3 0 0 1 -3 3zm-15-6h12v-60h-12z" fill="#1c2d6b"/><path d="m128 215h-18a3 3 0 0 1 -3-3v-66a3 3 0 0 1 3-3h18a3 3 0 0 1 3 3v66a3 3 0 0 1 -3 3zm-15-6h12v-60h-12z" fill="#1c2d6b"/><path d="m102.877 146h7.123v66h-7.123z" fill="#d3ba2a"/><path d="m92 146h7.123v66h-7.123z" fill="#ede49d"/><path d="m99.123 146h3.754v66h-3.754z" fill="#eee045"/><path d="m110 215h-18a3 3 0 0 1 -3-3v-66a3 3 0 0 1 3-3h18a3 3 0 0 1 3 3v66a3 3 0 0 1 -3 3zm-15-6h12v-60h-12z" fill="#1c2d6b"/><path d="m71 200a9.01 9.01 0 0 1 -9-9v-24a9 9 0 0 1 18 0v24a9.01 9.01 0 0 1 -9 9zm0-36a3 3 0 0 0 -3 3v24a3 3 0 0 0 6 0v-24a3 3 0 0 0 -3-3z" fill="#1c2d6b"/><path d="m41 200a9.01 9.01 0 0 1 -9-9v-24a9 9 0 0 1 18 0v24a9.01 9.01 0 0 1 -9 9zm0-36a3 3 0 0 0 -3 3v24a3 3 0 0 0 6 0v-24a3 3 0 0 0 -3-3z" fill="#1c2d6b"/><path d="m47 176h-12a3 3 0 0 1 0-6h12a3 3 0 0 1 0 6z" fill="#1c2d6b"/><path d="m47 188h-12a3 3 0 0 1 0-6h12a3 3 0 0 1 0 6z" fill="#1c2d6b"/><path d="m77 176h-12a3 3 0 0 1 0-6h12a3 3 0 0 1 0 6z" fill="#1c2d6b"/><path d="m77 188h-12a3 3 0 0 1 0-6h12a3 3 0 0 1 0 6z" fill="#1c2d6b"/><path d="m41 68c0-6.627 1.343-12 3-12a12 12 0 0 0 0 24c-1.657 0-3-5.373-3-12z" fill="#ef7f72"/><path d="m44 56c1.657 0 3 5.373 3 12s-1.343 12-3 12a12 12 0 0 0 0-24z" fill="#e8383b"/><ellipse cx="44" cy="68" fill="#e95947" rx="3" ry="12"/><path d="m83 68c0-6.627 1.343-12 3-12a12 12 0 0 0 0 24c-1.657 0-3-5.373-3-12z" fill="#ef7f72"/><path d="m86 56c1.657 0 3 5.373 3 12s-1.343 12-3 12a12 12 0 0 0 0-24z" fill="#e8383b"/><ellipse cx="86" cy="68" fill="#e95947" rx="3" ry="12"/><path d="m125 68c0-6.627 1.343-12 3-12a12 12 0 0 0 0 24c-1.657 0-3-5.373-3-12z" fill="#ef7f72"/><path d="m128 56c1.657 0 3 5.373 3 12s-1.343 12-3 12a12 12 0 0 0 0-24z" fill="#e8383b"/><ellipse cx="128" cy="68" fill="#e95947" rx="3" ry="12"/><path d="m41 116c0-6.627 1.343-12 3-12a12 12 0 0 0 0 24c-1.657 0-3-5.373-3-12z" fill="#ef7f72"/><path d="m44 104c1.657 0 3 5.373 3 12s-1.343 12-3 12a12 12 0 0 0 0-24z" fill="#e8383b"/><ellipse cx="44" cy="116" fill="#e95947" rx="3" ry="12"/><path d="m83 116c0-6.627 1.343-12 3-12a12 12 0 0 0 0 24c-1.657 0-3-5.373-3-12z" fill="#ef7f72"/><path d="m86 104c1.657 0 3 5.373 3 12s-1.343 12-3 12a12 12 0 0 0 0-24z" fill="#e8383b"/><ellipse cx="86" cy="116" fill="#e95947" rx="3" ry="12"/><path d="m125 116c0-6.627 1.343-12 3-12a12 12 0 0 0 0 24c-1.657 0-3-5.373-3-12z" fill="#ef7f72"/><path d="m128 104c1.657 0 3 5.373 3 12s-1.343 12-3 12a12 12 0 0 0 0-24z" fill="#e8383b"/><ellipse cx="128" cy="116" fill="#e95947" rx="3" ry="12"/><path d="m167 68c0-6.627 1.343-12 3-12a12 12 0 0 0 0 24c-1.657 0-3-5.373-3-12z" fill="#ef7f72"/><path d="m170 56c1.657 0 3 5.373 3 12s-1.343 12-3 12a12 12 0 0 0 0-24z" fill="#e8383b"/><ellipse cx="170" cy="68" fill="#e95947" rx="3" ry="12"/><path d="m209 68c0-6.627 1.343-12 3-12a12 12 0 0 0 0 24c-1.657 0-3-5.373-3-12z" fill="#ef7f72"/><path d="m212 56c1.657 0 3 5.373 3 12s-1.343 12-3 12a12 12 0 0 0 0-24z" fill="#e8383b"/><ellipse cx="212" cy="68" fill="#e95947" rx="3" ry="12"/><g fill="#1c2d6b"><path d="m44 83a15 15 0 1 1 15-15 15.017 15.017 0 0 1 -15 15zm0-24a9 9 0 1 0 9 9 9.01 9.01 0 0 0 -9-9z"/><path d="m48.242 66.758a3 3 0 0 1 -2.121-5.121l4.243-4.243a3 3 0 0 1 4.242 4.242l-4.243 4.243a2.989 2.989 0 0 1 -2.121.879z"/><path d="m86 83a15 15 0 1 1 15-15 15.017 15.017 0 0 1 -15 15zm0-24a9 9 0 1 0 9 9 9.01 9.01 0 0 0 -9-9z"/><path d="m90.242 66.758a3 3 0 0 1 -2.121-5.121l4.243-4.243a3 3 0 0 1 4.242 4.242l-4.243 4.243a2.989 2.989 0 0 1 -2.121.879z"/><path d="m128 83a15 15 0 1 1 15-15 15.017 15.017 0 0 1 -15 15zm0-24a9 9 0 1 0 9 9 9.01 9.01 0 0 0 -9-9z"/><path d="m132.242 66.758a3 3 0 0 1 -2.121-5.121l4.243-4.243a3 3 0 1 1 4.242 4.242l-4.243 4.243a2.989 2.989 0 0 1 -2.121.879z"/><path d="m170 83a15 15 0 1 1 15-15 15.017 15.017 0 0 1 -15 15zm0-24a9 9 0 1 0 9 9 9.01 9.01 0 0 0 -9-9z"/><path d="m174.242 66.758a3 3 0 0 1 -2.121-5.121l4.243-4.243a3 3 0 1 1 4.242 4.242l-4.243 4.243a2.989 2.989 0 0 1 -2.121.879z"/><path d="m212 83a15 15 0 1 1 15-15 15.017 15.017 0 0 1 -15 15zm0-24a9 9 0 1 0 9 9 9.01 9.01 0 0 0 -9-9z"/><path d="m216.242 66.758a3 3 0 0 1 -2.121-5.121l4.243-4.243a3 3 0 1 1 4.242 4.242l-4.243 4.243a2.989 2.989 0 0 1 -2.121.879z"/><path d="m128 131a15 15 0 1 1 15-15 15.017 15.017 0 0 1 -15 15zm0-24a9 9 0 1 0 9 9 9.01 9.01 0 0 0 -9-9z"/><path d="m119.515 127.485a3 3 0 0 1 -2.121-5.121l4.243-4.243a3 3 0 1 1 4.242 4.242l-4.243 4.243a2.991 2.991 0 0 1 -2.121.879z"/><path d="m86 131a15 15 0 1 1 15-15 15.017 15.017 0 0 1 -15 15zm0-24a9 9 0 1 0 9 9 9.01 9.01 0 0 0 -9-9z"/><path d="m77.515 127.485a3 3 0 0 1 -2.121-5.121l4.243-4.243a3 3 0 1 1 4.242 4.242l-4.243 4.243a2.991 2.991 0 0 1 -2.121.879z"/><path d="m44 131a15 15 0 1 1 15-15 15.017 15.017 0 0 1 -15 15zm0-24a9 9 0 1 0 9 9 9.01 9.01 0 0 0 -9-9z"/><path d="m35.515 127.485a3 3 0 0 1 -2.121-5.121l4.243-4.243a3 3 0 1 1 4.242 4.242l-4.243 4.243a2.991 2.991 0 0 1 -2.121.879z"/><path d="m224 95h-192a3 3 0 0 1 0-6h192a3 3 0 0 1 0 6z"/><path d="m164 137a3 3 0 0 1 -3-3v-30a3 3 0 0 1 6 0v30a3 3 0 0 1 -3 3z"/><path d="m182 137a3 3 0 0 1 -3-3v-30a3 3 0 0 1 6 0v30a3 3 0 0 1 -3 3z"/><path d="m200 137a3 3 0 0 1 -3-3v-30a3 3 0 0 1 6 0v30a3 3 0 0 1 -3 3z"/><path d="m218 137a3 3 0 0 1 -3-3v-30a3 3 0 0 1 6 0v30a3 3 0 0 1 -3 3z"/><rect height="6" rx="3" width="18" x="155" y="110"/><rect height="6" rx="3" width="18" x="172.999" y="122.364"/><rect height="6" rx="3" width="18" x="191" y="110"/><rect height="6" rx="3" width="18" x="209" y="122.364"/><path d="m104 146h12v42h-12z"/><path d="m122 146h12v42h-12z"/><path d="m175.999 146h12v42h-12z"/><path d="m194 146h12v42h-12z"/><path d="m212 146h12v42h-12z"/></g></svg>